# AST/ASF file generated using VICON BodyLanguage
# -----------------------------------------------
:version 1.10
:name VICON
:units
  mass 1.0
  length 0.45
  angle deg
:documentation
   .ast/.asf automatically generated from VICON data using
   VICON BodyBuilder and BodyLanguage model FoxedUp or BRILLIANT.MOD
:root
   order TX TY TZ RX RY RZ
   axis XYZ
   position 0 0 0  
   orientation 0 0 0 
:bonedata
  begin
     id 1 
     name lhipjoint
     direction 0.707368 -0.647095 0.284426 
     length 2.60678 
     axis 0 0 0  XYZ
  end
  begin
     id 2 
     name lfemur
     direction 0.34202 -0.939693 0  
     length 6.63812  
     axis 0 0 20  XYZ
    dof rx ry rz
    limits (-160.0 20.0)
           (-70.0 70.0)
           (-60.0 70.0)
  end
  begin
     id 3 
     name ltibia
     direction 0.34202 -0.939693 0   
     length 7.51178   
     axis 0 0 20   XYZ
    dof rx
    limits (-10.0 170.0)
  end
  begin
     id 4 
     name lfoot
     direction 0.121251 -0.333133 0.935051   
     length 1.83716   
     axis -90 7.62852e-016 20   XYZ
    dof rx rz
    limits (-45.0 90.0)
           (-70.0 20.0)
  end
  begin
     id 5 
     name ltoes
     direction 1.53611e-011 -4.21962e-011 1   
     length 0.916133   
     axis -90 7.62852e-016 20   XYZ
    dof rx
    limits (-90.0 20.0)
  end
  begin
     id 6 
     name rhipjoint
     direction -0.692419 -0.660507 0.290321   
     length 2.55385  
     axis 0 0 0  XYZ 
  end
  begin
     id 7 
     name rfemur
     direction -0.34202 -0.939693 0   
     length 7.29079   
     axis 0 0 -20   XYZ
    dof rx ry rz
    limits (-160.0 20.0)
           (-70.0 70.0)
           (-70.0 60.0)
  end
  begin
     id 8 
     name rtibia
     direction -0.34202 -0.939693 0   
     length 7.47143   
     axis 0 0 -20   XYZ
    dof rx
    limits (-10.0 170.0)
 end
 begin
     id 9 
     name rfoot
     direction -0.119907 -0.329441 0.936532   
     length 1.79439  
     axis -90 -7.62852e-016 -20   XYZ
    dof rx rz
    limits (-45.0 90.0)
           (-20.0 70.0)
  end
  begin
     id 10 
     name rtoes
     direction -1.53571e-011 -4.21961e-011 1   
     length 0.896039   
     axis -90 -7.62852e-016 -20   XYZ
    dof rx
    limits (-90.0 20.0)
  end
  begin
     id 11 
     name lowerback
     direction 0.0367721 0.992912 -0.113016   
     length 1.73542   
     axis 0 0 0   XYZ
    dof rx ry rz
    limits (-20.0 45.0)
           (-30.0 30.0)
           (-30.0 30.0)
  end
  begin
     id 12 
     name upperback
     direction -0.000314626 0.990678 0.136227   
     length 1.7514   
     axis 0 0 0   XYZ
    dof rx ry rz
    limits (-20.0 45.0)
           (-30.0 30.0)
           (-30.0 30.0)
  end
  begin
     id 13 
     name thorax
     direction -0.0226159 0.981151 0.191917   
     length 1.71471   
     axis 0 0 0   XYZ
    dof rx ry rz
    limits (-20.0 45.0)
           (-30.0 30.0)
           (-30.0 30.0)
  end
  begin
     id 14 
     name lowerneck
     direction 0.0219333 0.998071 0.0580739   
     length 1.65882   
     axis 0 0 0   XYZ
    dof rx ry rz
    limits (-20.0 45.0)
           (-30.0 30.0)
           (-30.0 30.0)
  end
  begin
     id 15 
     name upperneck
     direction 0.0384529 0.980058 -0.194957   
     length 1.6612   
     axis 0 0 0   XYZ
    dof rx ry rz
    limits (-20.0 45.0)
           (-30.0 30.0)
           (-30.0 30.0)
  end
  begin
     id 16
     name head
     direction 0.00592123 0.997421 -0.0715234  
     length 1.68077  
     axis 0 0 0   XYZ
    dof rx ry rz
    limits (-20.0 45.0)
           (-30.0 30.0)
           (-30.0 30.0)
  end
  begin
     id 17 
     name lclavicle
     direction 0.904803 0.417826 0.0821728  
     length 3.42227  
     axis 0 0 0   XYZ
    dof ry rz
    limits (-20.0 10.0)
           (0.0 20.0)
  end
  begin
     id 18 
     name lhumerus
     direction 1 -4.48965e-011 -2.68786e-027   
     length 5.11878   
     axis -180 -30 -90   XYZ
    dof rx ry rz
    limits (-60.0 90.0)
           (-90.0 90.0)
           (-90.0 90.0)
  end
  begin
     id 19
     name lradius
     direction 1 -4.48965e-011 2.61168e-028   
     length 3.59971   
     axis -180 -30 -90   XYZ
    dof rx
    limits (-10.0 170.0)
  end
  begin
     id 20
     name lwrist
     direction 1 -4.48965e-011 1.58672e-027   
     length 1.79985   
     axis -1.65735e-015 90 90   XYZ
    dof ry
    limits (-180.0 0.0)
 end
  begin
     id 21 
     name lhand
     direction 1 -4.48942e-011 3.17344e-027   
     length 0.62877   
     axis -2.02492e-015 90 90   XYZ
    dof rx rz
    limits (-90.0 90.0)
           (-45.0 45.0)
  end
  begin
     id 22 
     name lfingers
     direction 1 -4.49011e-011 6.34687e-027   
     length 0.506931   
     axis -4.04985e-015 90 90   XYZ
    dof rx
    limits (0.0 90.0)
  end
  begin
     id 23
     name lthumb
     direction 0.707107 -6.34982e-011 0.707107   
     length 0.727854   
     axis -90 45 2.85299e-015   XYZ
    dof rx rz
    limits (-45.0 45.0)
           (-45.0 45.0)
  end
  begin
     id 24 
     name rclavicle
     direction -0.945647 0.32488 0.0143075   
     length 3.52737  
     axis 0 0 0   XYZ 
    dof ry rz
    limits (-10.0 20.0)
           (-20.0 0.0)
  end
  begin
     id 25 
     name rhumerus
     direction -1 -4.48962e-011 1.92182e-027  
     length 5.4902   
     axis -180 30 90   XYZ
    dof rx ry rz
    limits (-90.0 60.0)
           (-90.0 90.0)
           (-90.0 90.0)
  end
  begin
     id 26 
     name rradius
     direction -1 -4.48967e-011 -5.97193e-028   
     length 3.20659   
     axis -180 30 90   XYZ
    dof rx
    limits (-10.0 170.0)
  end
  begin
     id 27 
     name rwrist
     direction -1 -4.48964e-011 1.58672e-027   
     length 1.6033   
     axis -1.65735e-015 -90 -90   XYZ
    dof ry
    limits (-180.0 0.0)
  end
  begin
     id 28
     name rhand
     direction -1 -4.49006e-011 3.17344e-027   
     length 0.691885   
     axis -2.02492e-015 -90 -90   XYZ
    dof rx rz
    limits (-90.0 90.0)
           (-45.0 45.0)
  end
  begin
     id 29
     name rfingers
     direction -1 -4.48908e-011 6.34687e-027   
     length 0.557815   
     axis -4.04985e-015 -90 -90   XYZ
    dof rx
    limits (0.0 90.0)
  end
  begin
     id 30
     name rthumb
     direction -0.707107 -6.34999e-011 0.707107   
     length 0.800915   
     axis -90 -45 -2.85299e-015   XYZ
    dof rx rz
    limits (-45.0 45.0)
           (-45.0 45.0)
  end
:hierarchy
  begin
    root lhipjoint rhipjoint lowerback
    lhipjoint lfemur
    lfemur ltibia
    ltibia lfoot
    lfoot ltoes
    rhipjoint rfemur
    rfemur rtibia
    rtibia rfoot
    rfoot rtoes
    lowerback upperback
    upperback thorax
    thorax lowerneck lclavicle rclavicle
    lowerneck upperneck
    upperneck head
    lclavicle lhumerus
    lhumerus lradius
    lradius lwrist
    lwrist lhand lthumb
    lhand lfingers
    rclavicle rhumerus
    rhumerus rradius
    rradius rwrist
    rwrist rhand rthumb
    rhand rfingers
  end

#!OML:ASF I:\Actors\actors\Patient Classification 1\Patient 1\Session 1\Subject1.ASF
:FULLY-SPECIFIED
:DEGREES
45
root -0.37199 17.5065 7.40838 6.01324 -2.14817 -7.60756
lowerback 2.32964 0.405677 3.93778
upperback -6.46445 0.85929 0.878139
thorax -8.04784 0.204491 -1.35925
lowerneck 3.97574 -14.3828 -16.215
upperneck 11.3991 -22.2739 19.5758
head 6.88265 -11.007 7.15256
rclavicle 7.00716e-015 -6.36111e-015
rhumerus -35.7848 -15.4398 -83.8489
rradius 21.938
rwrist 44.2173
rhand 0.904164 -31.484
rfingers 7.12502
rthumb 26.4561 -59.6574
lclavicle 7.00716e-015 -6.36111e-015
lhumerus -41.8147 24.3755 71.8047
lradius 22.3132
lwrist -29.6884
lhand -19.398 -9.67876
lfingers 7.12502
lthumb 6.92097 20.1881
rfemur -1.66502 24.0598 25.4285
rtibia 3.22296
rfoot -10.8321 -20.9897
rtoes 0.0729799
lfemur 6.92718 -38.2337 -15.5033
ltibia -3.75974
lfoot -14.0772 47.508
ltoes 7.30229
46
root -0.371489 17.5067 7.40948 6.01895 -2.14277 -7.60253
lowerback 2.33203 0.39753 3.91438
upperback -6.47838 0.84765 0.882122
thorax -8.06518 0.199907 -1.34096
lowerneck 4.01407 -14.3687 -16.1632
upperneck 11.4153 -22.2552 19.5451
head 6.86751 -10.9991 7.14202
rclavicle 2.98177e-015 -2.38542e-015
rhumerus -35.858 -15.7126 -83.5715
rradius 21.8936
rwrist 44.3794
rhand 0.550851 -31.5209
rfingers 7.12502
rthumb 26.1179 -59.7448
lclavicle 2.98177e-015 -2.38542e-015
lhumerus -41.8541 24.3568 71.8635
lradius 22.2859
lwrist -29.74
lhand -19.4953 -9.83984
lfingers 7.12502
lthumb 6.82699 20.0301
rfemur -1.65489 24.0903 25.4244
rtibia 3.20917
rfoot -10.8376 -21.0355
rtoes 0.208924
lfemur 6.94182 -38.2265 -15.5127
ltibia -3.79223
lfoot -14.1426 47.5008
ltoes 7.43866
47
root -0.370589 17.5068 7.41046 6.00103 -2.12001 -7.6174
lowerback 2.35737 0.377266 3.92134
upperback -6.4737 0.823432 0.902257
thorax -8.07653 0.188131 -1.32168
lowerneck 4.01665 -14.3569 -16.1439
upperneck 11.4468 -22.2368 19.505
head 6.86612 -10.9903 7.12945
rclavicle 1.70955e-014 -1.66979e-014
rhumerus -35.91 -16.0185 -83.2442
rradius 21.8517
rwrist 44.5992
rhand 0.128637 -31.4741
rfingers 7.12502
rthumb 25.7136 -59.7571
lclavicle 1.70955e-014 -1.66979e-014
lhumerus -41.8981 24.4201 71.8875
lradius 22.2443
lwrist -29.8609
lhand -19.578 -10.086
lfingers 7.12502
lthumb 6.7472 19.7865
rfemur -1.61301 24.1032 25.4577
rtibia 3.18801
rfoot -10.8433 -21.0922
rtoes 0.136518
lfemur 6.96743 -38.1439 -15.4985
ltibia -3.82893
lfoot -13.8614 47.4438
ltoes 6.9755
48
root -0.370605 17.5074 7.41124 5.98093 -2.09952 -7.62259
lowerback 2.39999 0.301635 3.85979
upperback -6.48315 0.723134 0.945537
thorax -8.11782 0.143405 -1.23283
lowerneck 4.09408 -14.2776 -16.0587
upperneck 11.3836 -22.1187 19.4934
head 6.79819 -10.9376 7.14033
rclavicle 3.77691e-015 -1.59028e-015
rhumerus -35.9457 -16.3775 -82.9016
rradius 21.7313
rwrist 45.0183
rhand -0.194555 -31.3831
rfingers 7.12502
rthumb 25.404 -59.7105
lclavicle 3.77691e-015 -1.59028e-015
lhumerus -42.052 24.5913 71.7931
lradius 22.2569
lwrist -29.9084
lhand -19.5547 -10.3319
lfingers 7.12502
lthumb 6.76971 19.5399
rfemur -1.58153 24.1016 25.4774
rtibia 3.18124
rfoot -10.851 -21.099
rtoes 0.0540988
lfemur 6.99476 -38.1448 -15.5077
ltibia -3.83695
lfoot -13.7142 47.4446
ltoes 6.68532
49
root -0.370107 17.5076 7.41189 5.97173 -2.06759 -7.65613
lowerback 2.43437 0.1954 3.81618
upperback -6.5086 0.582921 0.990143
thorax -8.17333 0.0775626 -1.14856
lowerneck 4.19076 -14.1712 -15.8884
upperneck 11.311 -21.9568 19.4535
head 6.70225 -10.8633 7.13891
rclavicle -2.48481e-016 3.97569e-015
rhumerus -35.978 -16.6175 -82.678
rradius 21.6255
rwrist 45.2687
rhand -0.31202 -31.4722
rfingers 7.12502
rthumb 25.2915 -59.8155
lclavicle -2.48481e-016 3.97569e-015
lhumerus -42.2232 24.7214 71.7043
lradius 22.3032
lwrist -29.7968
lhand -19.5615 -10.4519
lfingers 7.12502
lthumb 6.76312 19.4201
rfemur -1.57833 24.078 25.5175
rtibia 3.20781
rfoot -10.8608 -21.0837
rtoes 0.106977
lfemur 6.99429 -38.1846 -15.4764
ltibia -3.81737
lfoot -13.755 47.4339
ltoes 6.77229
50
root -0.369066 17.5077 7.41261 5.96688 -2.05211 -7.68964
lowerback 2.44859 0.14697 3.82067
upperback -6.51537 0.520278 1.00902
thorax -8.19235 0.04674 -1.12533
lowerneck 4.22932 -14.1364 -15.8591
upperneck 11.3127 -21.9147 19.4666
head 6.68616 -10.8443 7.14935
rclavicle 1.64494e-014 -1.43125e-014
rhumerus -36.0135 -16.7998 -82.4859
rradius 21.6343
rwrist 45.2742
rhand -0.306965 -31.6197
rfingers 7.12502
rthumb 25.2963 -59.9623
lclavicle 1.64494e-014 -1.43125e-014
lhumerus -42.2907 24.7442 71.7445
lradius 22.3381
lwrist -29.6943
lhand -19.6361 -10.5172
lfingers 7.12502
lthumb 6.69116 19.3571
rfemur -1.5823 24.0376 25.5477
rtibia 3.22942
rfoot -10.8622 -21.0583
rtoes 0.140404
lfemur 6.98106 -38.1694 -15.4321
ltibia -3.79963
lfoot -13.7807 47.3993
ltoes 6.88426
51
root -0.368936 17.5085 7.41333 5.96943 -2.05392 -7.70145
lowerback 2.45416 0.147135 3.8193
upperback -6.51626 0.520881 1.01128
thorax -8.19658 0.047127 -1.12226
lowerneck 4.27025 -14.1473 -15.9618
upperneck 11.3074 -21.9579 19.5875
head 6.71265 -10.868 7.19977
rclavicle 6.16232e-015 -1.03368e-014
rhumerus -36.0765 -16.9478 -82.2971
rradius 21.719
rwrist 45.2468
rhand -0.388443 -31.6888
rfingers 7.12502
rthumb 25.2183 -60.0425
lclavicle 6.16232e-015 -1.03368e-014
lhumerus -42.3094 24.7798 71.792
lradius 22.3324
lwrist -29.7741
lhand -19.5967 -10.574
lfingers 7.12502
lthumb 6.72911 19.2991
rfemur -1.58388 24.0394 25.5572
rtibia 3.2279
rfoot -10.8779 -21.0555
rtoes 0.119237
lfemur 6.97611 -38.1858 -15.4177
ltibia -3.78549
lfoot -13.8755 47.4245
ltoes 6.95683
52
root -0.368353 17.5095 7.41436 5.96362 -2.05957 -7.71977
lowerback 2.47716 0.166424 3.8529
upperback -6.51454 0.550145 1.01001
thorax -8.20685 0.0591619 -1.14525
lowerneck 4.30349 -14.1651 -16.0668
upperneck 11.2728 -22.0065 19.7205
head 6.73424 -10.8941 7.25305
rclavicle 5.76476e-015 -1.59028e-015
rhumerus -36.1568 -17.0693 -82.1425
rradius 21.8173
rwrist 45.1966
rhand -0.587309 -31.7175
rfingers 7.12502
rthumb 25.0277 -60.0978
lclavicle 5.76476e-015 -1.59028e-015
lhumerus -42.2849 24.8218 71.8523
lradius 22.2995
lwrist -29.9228
lhand -19.4518 -10.5104
lfingers 7.12502
lthumb 6.86899 19.3581
rfemur -1.58034 24.0392 25.5817
rtibia 3.23887
rfoot -10.8981 -21.0436
rtoes 0.0896513
lfemur 7.00365 -38.2225 -15.4225
ltibia -3.78379
lfoot -13.8882 47.466
ltoes 6.86598
53
root -0.367787 17.51 7.4161 5.94338 -2.07781 -7.75402
lowerback 2.49353 0.192786 3.90846
upperback -6.489 0.590444 1.02486
thorax -8.18684 0.0766138 -1.16463
lowerneck 4.27869 -14.1827 -16.1574
upperneck 11.243 -22.038 19.7974
head 6.7555 -10.9092 7.28345
rclavicle -1.73937e-015 2.22639e-014
rhumerus -36.2079 -17.2307 -81.9677
rradius 21.8926
rwrist 45.2077
rhand -0.794376 -31.6766
rfingers 7.12502
rthumb 24.8293 -60.0845
lclavicle -1.73937e-015 2.22639e-014
lhumerus -42.2231 24.7464 72.039
lradius 22.3194
lwrist -29.9309
lhand -19.2954 -10.3504
lfingers 7.12502
lthumb 7.01997 19.5132
rfemur -1.55812 24.0444 25.6367
rtibia 3.2621
rfoot -10.9009 -21.0345
rtoes 0.0904474
lfemur 7.04989 -38.1912 -15.4157
ltibia -3.79158
lfoot -13.7789 47.4609
ltoes 6.71756
54
root -0.368236 17.5101 7.41863 5.93462 -2.10223 -7.77761
lowerback 2.46925 0.204809 3.9235
upperback -6.46826 0.606881 1.04221
thorax -8.14933 0.0852791 -1.15623
lowerneck 4.27356 -14.1789 -16.2104
upperneck 11.2222 -22.0375 19.8463
head 6.76201 -10.9096 7.30643
rclavicle 5.41688e-015 -2.62396e-014
rhumerus -36.2384 -17.2827 -81.8527
rradius 21.9381
rwrist 45.223
rhand -0.908345 -31.6366
rfingers 7.12502
rthumb 24.7201 -60.0595
lclavicle 5.41688e-015 -2.62396e-014
lhumerus -42.1838 24.5754 72.2474
lradius 22.3755
lwrist -29.8029
lhand -19.1687 -10.2841
lfingers 7.12502
lthumb 7.14231 19.5754
rfemur -1.53525 24.0778 25.6822
rtibia 3.26916
rfoot -10.9022 -21.0597
rtoes 0.226761
lfemur 7.06927 -38.1297 -15.3986
ltibia -3.78212
lfoot -13.7917 47.423
ltoes 6.76625
55
root -0.367658 17.5096 7.42094 5.93541 -2.11587 -7.78841
lowerback 2.4478 0.185301 3.92144
upperback -6.47948 0.580274 1.05078
thorax -8.15037 0.0724738 -1.1434
lowerneck 4.31852 -14.1361 -16.1996
upperneck 11.2208 -21.9846 19.8613
head 6.74394 -10.8865 7.32245
rclavicle 1.09332e-015 1.59028e-015
rhumerus -36.3021 -17.2578 -81.7924
rradius 21.9574
rwrist 45.2986
rhand -0.896838 -31.6074
rfingers 7.12502
rthumb 24.7311 -60.0288
lclavicle 1.09332e-015 1.59028e-015
lhumerus -42.212 24.4498 72.3459
lradius 22.4276
lwrist -29.6218
lhand -19.1523 -10.3679
lfingers 7.12502
lthumb 7.15817 19.491
rfemur -1.53026 24.0508 25.6989
rtibia 3.26674
rfoot -10.8592 -21.0473
rtoes 0.0704668
lfemur 7.08453 -38.1346 -15.4027
ltibia -3.76685
lfoot -13.9264 47.4074
ltoes 6.9756
56
root -0.366801 17.5085 7.42244 5.94071 -2.12584 -7.81863
lowerback 2.43458 0.167052 3.94649
upperback -6.49502 0.557943 1.06231
thorax -8.16079 0.0599317 -1.14303
lowerneck 4.34054 -14.104 -16.1646
upperneck 11.2312 -21.9399 19.8421
head 6.72807 -10.8657 7.32049
rclavicle -4.77083e-015 -1.27222e-014
rhumerus -36.3885 -17.3698 -81.6652
rradius 21.9508
rwrist 45.5084
rhand -0.895761 -31.4819
rfingers 7.12502
rthumb 24.7321 -59.9031
lclavicle -4.77083e-015 -1.27222e-014
lhumerus -42.2465 24.3666 72.4063
lradius 22.4872
lwrist -29.4505
lhand -19.1622 -10.4461
lfingers 7.12502
lthumb 7.14856 19.4131
rfemur -1.5387 24.0212 25.7311
rtibia 3.27252
rfoot -10.818 -21.0177
rtoes -0.261051
lfemur 7.10093 -38.1798 -15.3857
ltibia -3.76348
lfoot -14.0299 47.4376
ltoes 7.13165
